<mxfile host="app.diagrams.net" modified="2021-03-11T13:57:40.717Z" agent="5.0 (Macintosh; Intel Mac OS X 10_15_6) AppleWebKit/605.1.15 (KHTML, like Gecko) Version/14.0.2 Safari/605.1.15" etag="j7HdGXUnfUcAjLxSyGXe" version="14.4.7" type="github">
  <diagram id="0xzwgnCEr1i7I_EWIB-r" name="ページ1">
    <mxGraphModel dx="743" dy="434" grid="1" gridSize="10" guides="1" tooltips="1" connect="1" arrows="1" fold="1" page="1" pageScale="1" pageWidth="827" pageHeight="1169" math="0" shadow="0">
      <root>
        <mxCell id="0" />
        <mxCell id="1" parent="0" />
        <mxCell id="xpiKYsI1_r9FF396CeuT-1" value="会員" style="shape=table;startSize=30;container=1;collapsible=1;childLayout=tableLayout;fixedRows=1;rowLines=0;fontStyle=1;align=center;resizeLast=1;" vertex="1" parent="1">
          <mxGeometry x="40" y="40" width="180" height="330" as="geometry" />
        </mxCell>
        <mxCell id="xpiKYsI1_r9FF396CeuT-2" value="" style="shape=partialRectangle;collapsible=0;dropTarget=0;pointerEvents=0;fillColor=none;top=0;left=0;bottom=1;right=0;points=[[0,0.5],[1,0.5]];portConstraint=eastwest;" vertex="1" parent="xpiKYsI1_r9FF396CeuT-1">
          <mxGeometry y="30" width="180" height="30" as="geometry" />
        </mxCell>
        <mxCell id="xpiKYsI1_r9FF396CeuT-3" value="PK" style="shape=partialRectangle;connectable=0;fillColor=none;top=0;left=0;bottom=0;right=0;fontStyle=1;overflow=hidden;" vertex="1" parent="xpiKYsI1_r9FF396CeuT-2">
          <mxGeometry width="30" height="30" as="geometry" />
        </mxCell>
        <mxCell id="xpiKYsI1_r9FF396CeuT-4" value="会員ID" style="shape=partialRectangle;connectable=0;fillColor=none;top=0;left=0;bottom=0;right=0;align=left;spacingLeft=6;fontStyle=5;overflow=hidden;" vertex="1" parent="xpiKYsI1_r9FF396CeuT-2">
          <mxGeometry x="30" width="150" height="30" as="geometry" />
        </mxCell>
        <mxCell id="xpiKYsI1_r9FF396CeuT-5" value="" style="shape=partialRectangle;collapsible=0;dropTarget=0;pointerEvents=0;fillColor=none;top=0;left=0;bottom=0;right=0;points=[[0,0.5],[1,0.5]];portConstraint=eastwest;" vertex="1" parent="xpiKYsI1_r9FF396CeuT-1">
          <mxGeometry y="60" width="180" height="30" as="geometry" />
        </mxCell>
        <mxCell id="xpiKYsI1_r9FF396CeuT-6" value="" style="shape=partialRectangle;connectable=0;fillColor=none;top=0;left=0;bottom=0;right=0;editable=1;overflow=hidden;" vertex="1" parent="xpiKYsI1_r9FF396CeuT-5">
          <mxGeometry width="30" height="30" as="geometry" />
        </mxCell>
        <mxCell id="xpiKYsI1_r9FF396CeuT-7" value="名前（姓・名）" style="shape=partialRectangle;connectable=0;fillColor=none;top=0;left=0;bottom=0;right=0;align=left;spacingLeft=6;overflow=hidden;" vertex="1" parent="xpiKYsI1_r9FF396CeuT-5">
          <mxGeometry x="30" width="150" height="30" as="geometry" />
        </mxCell>
        <mxCell id="xpiKYsI1_r9FF396CeuT-8" value="" style="shape=partialRectangle;collapsible=0;dropTarget=0;pointerEvents=0;fillColor=none;top=0;left=0;bottom=0;right=0;points=[[0,0.5],[1,0.5]];portConstraint=eastwest;" vertex="1" parent="xpiKYsI1_r9FF396CeuT-1">
          <mxGeometry y="90" width="180" height="30" as="geometry" />
        </mxCell>
        <mxCell id="xpiKYsI1_r9FF396CeuT-9" value="" style="shape=partialRectangle;connectable=0;fillColor=none;top=0;left=0;bottom=0;right=0;editable=1;overflow=hidden;" vertex="1" parent="xpiKYsI1_r9FF396CeuT-8">
          <mxGeometry width="30" height="30" as="geometry" />
        </mxCell>
        <mxCell id="xpiKYsI1_r9FF396CeuT-10" value="名前（カナ）" style="shape=partialRectangle;connectable=0;fillColor=none;top=0;left=0;bottom=0;right=0;align=left;spacingLeft=6;overflow=hidden;" vertex="1" parent="xpiKYsI1_r9FF396CeuT-8">
          <mxGeometry x="30" width="150" height="30" as="geometry" />
        </mxCell>
        <mxCell id="xpiKYsI1_r9FF396CeuT-11" value="" style="shape=partialRectangle;collapsible=0;dropTarget=0;pointerEvents=0;fillColor=none;top=0;left=0;bottom=0;right=0;points=[[0,0.5],[1,0.5]];portConstraint=eastwest;" vertex="1" parent="xpiKYsI1_r9FF396CeuT-1">
          <mxGeometry y="120" width="180" height="30" as="geometry" />
        </mxCell>
        <mxCell id="xpiKYsI1_r9FF396CeuT-12" value="" style="shape=partialRectangle;connectable=0;fillColor=none;top=0;left=0;bottom=0;right=0;editable=1;overflow=hidden;" vertex="1" parent="xpiKYsI1_r9FF396CeuT-11">
          <mxGeometry width="30" height="30" as="geometry" />
        </mxCell>
        <mxCell id="xpiKYsI1_r9FF396CeuT-13" value="住所" style="shape=partialRectangle;connectable=0;fillColor=none;top=0;left=0;bottom=0;right=0;align=left;spacingLeft=6;overflow=hidden;" vertex="1" parent="xpiKYsI1_r9FF396CeuT-11">
          <mxGeometry x="30" width="150" height="30" as="geometry" />
        </mxCell>
        <mxCell id="xpiKYsI1_r9FF396CeuT-14" value="配送先" style="shape=table;startSize=30;container=1;collapsible=1;childLayout=tableLayout;fixedRows=1;rowLines=0;fontStyle=1;align=center;resizeLast=1;" vertex="1" parent="1">
          <mxGeometry x="320" y="40" width="180" height="190" as="geometry" />
        </mxCell>
        <mxCell id="xpiKYsI1_r9FF396CeuT-15" value="" style="shape=partialRectangle;collapsible=0;dropTarget=0;pointerEvents=0;fillColor=none;top=0;left=0;bottom=1;right=0;points=[[0,0.5],[1,0.5]];portConstraint=eastwest;" vertex="1" parent="xpiKYsI1_r9FF396CeuT-14">
          <mxGeometry y="30" width="180" height="30" as="geometry" />
        </mxCell>
        <mxCell id="xpiKYsI1_r9FF396CeuT-16" value="PK" style="shape=partialRectangle;connectable=0;fillColor=none;top=0;left=0;bottom=0;right=0;fontStyle=1;overflow=hidden;" vertex="1" parent="xpiKYsI1_r9FF396CeuT-15">
          <mxGeometry width="30" height="30" as="geometry" />
        </mxCell>
        <mxCell id="xpiKYsI1_r9FF396CeuT-17" value="配送先ID" style="shape=partialRectangle;connectable=0;fillColor=none;top=0;left=0;bottom=0;right=0;align=left;spacingLeft=6;fontStyle=5;overflow=hidden;" vertex="1" parent="xpiKYsI1_r9FF396CeuT-15">
          <mxGeometry x="30" width="150" height="30" as="geometry" />
        </mxCell>
        <mxCell id="xpiKYsI1_r9FF396CeuT-18" value="" style="shape=partialRectangle;collapsible=0;dropTarget=0;pointerEvents=0;fillColor=none;top=0;left=0;bottom=0;right=0;points=[[0,0.5],[1,0.5]];portConstraint=eastwest;" vertex="1" parent="xpiKYsI1_r9FF396CeuT-14">
          <mxGeometry y="60" width="180" height="30" as="geometry" />
        </mxCell>
        <mxCell id="xpiKYsI1_r9FF396CeuT-19" value="" style="shape=partialRectangle;connectable=0;fillColor=none;top=0;left=0;bottom=0;right=0;editable=1;overflow=hidden;" vertex="1" parent="xpiKYsI1_r9FF396CeuT-18">
          <mxGeometry width="30" height="30" as="geometry" />
        </mxCell>
        <mxCell id="xpiKYsI1_r9FF396CeuT-20" value="" style="shape=partialRectangle;connectable=0;fillColor=none;top=0;left=0;bottom=0;right=0;align=left;spacingLeft=6;overflow=hidden;" vertex="1" parent="xpiKYsI1_r9FF396CeuT-18">
          <mxGeometry x="30" width="150" height="30" as="geometry" />
        </mxCell>
        <mxCell id="xpiKYsI1_r9FF396CeuT-21" value="" style="shape=partialRectangle;collapsible=0;dropTarget=0;pointerEvents=0;fillColor=none;top=0;left=0;bottom=0;right=0;points=[[0,0.5],[1,0.5]];portConstraint=eastwest;" vertex="1" parent="xpiKYsI1_r9FF396CeuT-14">
          <mxGeometry y="90" width="180" height="30" as="geometry" />
        </mxCell>
        <mxCell id="xpiKYsI1_r9FF396CeuT-22" value="" style="shape=partialRectangle;connectable=0;fillColor=none;top=0;left=0;bottom=0;right=0;editable=1;overflow=hidden;" vertex="1" parent="xpiKYsI1_r9FF396CeuT-21">
          <mxGeometry width="30" height="30" as="geometry" />
        </mxCell>
        <mxCell id="xpiKYsI1_r9FF396CeuT-23" value="配送先住所" style="shape=partialRectangle;connectable=0;fillColor=none;top=0;left=0;bottom=0;right=0;align=left;spacingLeft=6;overflow=hidden;" vertex="1" parent="xpiKYsI1_r9FF396CeuT-21">
          <mxGeometry x="30" width="150" height="30" as="geometry" />
        </mxCell>
        <mxCell id="xpiKYsI1_r9FF396CeuT-24" value="" style="shape=partialRectangle;collapsible=0;dropTarget=0;pointerEvents=0;fillColor=none;top=0;left=0;bottom=0;right=0;points=[[0,0.5],[1,0.5]];portConstraint=eastwest;" vertex="1" parent="xpiKYsI1_r9FF396CeuT-14">
          <mxGeometry y="120" width="180" height="30" as="geometry" />
        </mxCell>
        <mxCell id="xpiKYsI1_r9FF396CeuT-25" value="" style="shape=partialRectangle;connectable=0;fillColor=none;top=0;left=0;bottom=0;right=0;editable=1;overflow=hidden;" vertex="1" parent="xpiKYsI1_r9FF396CeuT-24">
          <mxGeometry width="30" height="30" as="geometry" />
        </mxCell>
        <mxCell id="xpiKYsI1_r9FF396CeuT-26" value="登録日" style="shape=partialRectangle;connectable=0;fillColor=none;top=0;left=0;bottom=0;right=0;align=left;spacingLeft=6;overflow=hidden;" vertex="1" parent="xpiKYsI1_r9FF396CeuT-24">
          <mxGeometry x="30" width="150" height="30" as="geometry" />
        </mxCell>
        <mxCell id="xpiKYsI1_r9FF396CeuT-32" value="注文" style="shape=table;startSize=30;container=1;collapsible=1;childLayout=tableLayout;fixedRows=1;rowLines=0;fontStyle=1;align=center;resizeLast=1;" vertex="1" parent="1">
          <mxGeometry x="320" y="330" width="180" height="270" as="geometry" />
        </mxCell>
        <mxCell id="xpiKYsI1_r9FF396CeuT-33" value="" style="shape=partialRectangle;collapsible=0;dropTarget=0;pointerEvents=0;fillColor=none;top=0;left=0;bottom=1;right=0;points=[[0,0.5],[1,0.5]];portConstraint=eastwest;" vertex="1" parent="xpiKYsI1_r9FF396CeuT-32">
          <mxGeometry y="30" width="180" height="30" as="geometry" />
        </mxCell>
        <mxCell id="xpiKYsI1_r9FF396CeuT-34" value="PK" style="shape=partialRectangle;connectable=0;fillColor=none;top=0;left=0;bottom=0;right=0;fontStyle=1;overflow=hidden;" vertex="1" parent="xpiKYsI1_r9FF396CeuT-33">
          <mxGeometry width="30" height="30" as="geometry" />
        </mxCell>
        <mxCell id="xpiKYsI1_r9FF396CeuT-35" value="注文ID" style="shape=partialRectangle;connectable=0;fillColor=none;top=0;left=0;bottom=0;right=0;align=left;spacingLeft=6;fontStyle=5;overflow=hidden;" vertex="1" parent="xpiKYsI1_r9FF396CeuT-33">
          <mxGeometry x="30" width="150" height="30" as="geometry" />
        </mxCell>
        <mxCell id="xpiKYsI1_r9FF396CeuT-36" value="" style="shape=partialRectangle;collapsible=0;dropTarget=0;pointerEvents=0;fillColor=none;top=0;left=0;bottom=0;right=0;points=[[0,0.5],[1,0.5]];portConstraint=eastwest;" vertex="1" parent="xpiKYsI1_r9FF396CeuT-32">
          <mxGeometry y="60" width="180" height="30" as="geometry" />
        </mxCell>
        <mxCell id="xpiKYsI1_r9FF396CeuT-37" value="" style="shape=partialRectangle;connectable=0;fillColor=none;top=0;left=0;bottom=0;right=0;editable=1;overflow=hidden;" vertex="1" parent="xpiKYsI1_r9FF396CeuT-36">
          <mxGeometry width="30" height="30" as="geometry" />
        </mxCell>
        <mxCell id="xpiKYsI1_r9FF396CeuT-38" value="会員ID" style="shape=partialRectangle;connectable=0;fillColor=none;top=0;left=0;bottom=0;right=0;align=left;spacingLeft=6;overflow=hidden;" vertex="1" parent="xpiKYsI1_r9FF396CeuT-36">
          <mxGeometry x="30" width="150" height="30" as="geometry" />
        </mxCell>
        <mxCell id="xpiKYsI1_r9FF396CeuT-39" value="" style="shape=partialRectangle;collapsible=0;dropTarget=0;pointerEvents=0;fillColor=none;top=0;left=0;bottom=0;right=0;points=[[0,0.5],[1,0.5]];portConstraint=eastwest;" vertex="1" parent="xpiKYsI1_r9FF396CeuT-32">
          <mxGeometry y="90" width="180" height="30" as="geometry" />
        </mxCell>
        <mxCell id="xpiKYsI1_r9FF396CeuT-40" value="" style="shape=partialRectangle;connectable=0;fillColor=none;top=0;left=0;bottom=0;right=0;editable=1;overflow=hidden;" vertex="1" parent="xpiKYsI1_r9FF396CeuT-39">
          <mxGeometry width="30" height="30" as="geometry" />
        </mxCell>
        <mxCell id="xpiKYsI1_r9FF396CeuT-41" value="商品" style="shape=partialRectangle;connectable=0;fillColor=none;top=0;left=0;bottom=0;right=0;align=left;spacingLeft=6;overflow=hidden;" vertex="1" parent="xpiKYsI1_r9FF396CeuT-39">
          <mxGeometry x="30" width="150" height="30" as="geometry" />
        </mxCell>
        <mxCell id="xpiKYsI1_r9FF396CeuT-42" value="" style="shape=partialRectangle;collapsible=0;dropTarget=0;pointerEvents=0;fillColor=none;top=0;left=0;bottom=0;right=0;points=[[0,0.5],[1,0.5]];portConstraint=eastwest;" vertex="1" parent="xpiKYsI1_r9FF396CeuT-32">
          <mxGeometry y="120" width="180" height="30" as="geometry" />
        </mxCell>
        <mxCell id="xpiKYsI1_r9FF396CeuT-43" value="" style="shape=partialRectangle;connectable=0;fillColor=none;top=0;left=0;bottom=0;right=0;editable=1;overflow=hidden;" vertex="1" parent="xpiKYsI1_r9FF396CeuT-42">
          <mxGeometry width="30" height="30" as="geometry" />
        </mxCell>
        <mxCell id="xpiKYsI1_r9FF396CeuT-44" value="配送先" style="shape=partialRectangle;connectable=0;fillColor=none;top=0;left=0;bottom=0;right=0;align=left;spacingLeft=6;overflow=hidden;" vertex="1" parent="xpiKYsI1_r9FF396CeuT-42">
          <mxGeometry x="30" width="150" height="30" as="geometry" />
        </mxCell>
        <mxCell id="xpiKYsI1_r9FF396CeuT-45" value="郵便番号" style="shape=partialRectangle;connectable=0;fillColor=none;top=0;left=0;bottom=0;right=0;align=left;spacingLeft=6;overflow=hidden;" vertex="1" parent="1">
          <mxGeometry x="70" y="190" width="150" height="30" as="geometry" />
        </mxCell>
        <mxCell id="xpiKYsI1_r9FF396CeuT-48" value="電話番号" style="shape=partialRectangle;connectable=0;fillColor=none;top=0;left=0;bottom=0;right=0;align=left;spacingLeft=6;overflow=hidden;" vertex="1" parent="1">
          <mxGeometry x="70" y="220" width="150" height="30" as="geometry" />
        </mxCell>
        <mxCell id="xpiKYsI1_r9FF396CeuT-49" value="メールアドレス" style="shape=partialRectangle;connectable=0;fillColor=none;top=0;left=0;bottom=0;right=0;align=left;spacingLeft=6;overflow=hidden;" vertex="1" parent="1">
          <mxGeometry x="70" y="250" width="150" height="30" as="geometry" />
        </mxCell>
        <mxCell id="xpiKYsI1_r9FF396CeuT-50" value="パスワード" style="shape=partialRectangle;connectable=0;fillColor=none;top=0;left=0;bottom=0;right=0;align=left;spacingLeft=6;overflow=hidden;" vertex="1" parent="1">
          <mxGeometry x="70" y="280" width="150" height="30" as="geometry" />
        </mxCell>
        <mxCell id="xpiKYsI1_r9FF396CeuT-51" value="" style="edgeStyle=entityRelationEdgeStyle;fontSize=12;html=1;endArrow=ERmany;" edge="1" parent="1">
          <mxGeometry width="100" height="100" relative="1" as="geometry">
            <mxPoint x="220" y="190" as="sourcePoint" />
            <mxPoint x="320" y="90" as="targetPoint" />
          </mxGeometry>
        </mxCell>
        <mxCell id="xpiKYsI1_r9FF396CeuT-52" value="管理者" style="shape=table;startSize=30;container=1;collapsible=1;childLayout=tableLayout;fixedRows=1;rowLines=0;fontStyle=1;align=center;resizeLast=1;" vertex="1" parent="1">
          <mxGeometry x="40" y="700" width="180" height="190" as="geometry" />
        </mxCell>
        <mxCell id="xpiKYsI1_r9FF396CeuT-53" value="" style="shape=partialRectangle;collapsible=0;dropTarget=0;pointerEvents=0;fillColor=none;top=0;left=0;bottom=1;right=0;points=[[0,0.5],[1,0.5]];portConstraint=eastwest;" vertex="1" parent="xpiKYsI1_r9FF396CeuT-52">
          <mxGeometry y="30" width="180" height="30" as="geometry" />
        </mxCell>
        <mxCell id="xpiKYsI1_r9FF396CeuT-54" value="PK" style="shape=partialRectangle;connectable=0;fillColor=none;top=0;left=0;bottom=0;right=0;fontStyle=1;overflow=hidden;" vertex="1" parent="xpiKYsI1_r9FF396CeuT-53">
          <mxGeometry width="30" height="30" as="geometry" />
        </mxCell>
        <mxCell id="xpiKYsI1_r9FF396CeuT-55" value="管理者ID" style="shape=partialRectangle;connectable=0;fillColor=none;top=0;left=0;bottom=0;right=0;align=left;spacingLeft=6;fontStyle=5;overflow=hidden;" vertex="1" parent="xpiKYsI1_r9FF396CeuT-53">
          <mxGeometry x="30" width="150" height="30" as="geometry" />
        </mxCell>
        <mxCell id="xpiKYsI1_r9FF396CeuT-56" value="" style="shape=partialRectangle;collapsible=0;dropTarget=0;pointerEvents=0;fillColor=none;top=0;left=0;bottom=0;right=0;points=[[0,0.5],[1,0.5]];portConstraint=eastwest;" vertex="1" parent="xpiKYsI1_r9FF396CeuT-52">
          <mxGeometry y="60" width="180" height="30" as="geometry" />
        </mxCell>
        <mxCell id="xpiKYsI1_r9FF396CeuT-57" value="" style="shape=partialRectangle;connectable=0;fillColor=none;top=0;left=0;bottom=0;right=0;editable=1;overflow=hidden;" vertex="1" parent="xpiKYsI1_r9FF396CeuT-56">
          <mxGeometry width="30" height="30" as="geometry" />
        </mxCell>
        <mxCell id="xpiKYsI1_r9FF396CeuT-58" value="メールアドレス" style="shape=partialRectangle;connectable=0;fillColor=none;top=0;left=0;bottom=0;right=0;align=left;spacingLeft=6;overflow=hidden;" vertex="1" parent="xpiKYsI1_r9FF396CeuT-56">
          <mxGeometry x="30" width="150" height="30" as="geometry" />
        </mxCell>
        <mxCell id="xpiKYsI1_r9FF396CeuT-59" value="" style="shape=partialRectangle;collapsible=0;dropTarget=0;pointerEvents=0;fillColor=none;top=0;left=0;bottom=0;right=0;points=[[0,0.5],[1,0.5]];portConstraint=eastwest;" vertex="1" parent="xpiKYsI1_r9FF396CeuT-52">
          <mxGeometry y="90" width="180" height="30" as="geometry" />
        </mxCell>
        <mxCell id="xpiKYsI1_r9FF396CeuT-60" value="" style="shape=partialRectangle;connectable=0;fillColor=none;top=0;left=0;bottom=0;right=0;editable=1;overflow=hidden;" vertex="1" parent="xpiKYsI1_r9FF396CeuT-59">
          <mxGeometry width="30" height="30" as="geometry" />
        </mxCell>
        <mxCell id="xpiKYsI1_r9FF396CeuT-61" value="パスワード" style="shape=partialRectangle;connectable=0;fillColor=none;top=0;left=0;bottom=0;right=0;align=left;spacingLeft=6;overflow=hidden;" vertex="1" parent="xpiKYsI1_r9FF396CeuT-59">
          <mxGeometry x="30" width="150" height="30" as="geometry" />
        </mxCell>
        <mxCell id="xpiKYsI1_r9FF396CeuT-62" value="" style="shape=partialRectangle;collapsible=0;dropTarget=0;pointerEvents=0;fillColor=none;top=0;left=0;bottom=0;right=0;points=[[0,0.5],[1,0.5]];portConstraint=eastwest;" vertex="1" parent="xpiKYsI1_r9FF396CeuT-52">
          <mxGeometry y="120" width="180" height="30" as="geometry" />
        </mxCell>
        <mxCell id="xpiKYsI1_r9FF396CeuT-63" value="" style="shape=partialRectangle;connectable=0;fillColor=none;top=0;left=0;bottom=0;right=0;editable=1;overflow=hidden;" vertex="1" parent="xpiKYsI1_r9FF396CeuT-62">
          <mxGeometry width="30" height="30" as="geometry" />
        </mxCell>
        <mxCell id="xpiKYsI1_r9FF396CeuT-64" value="登録日" style="shape=partialRectangle;connectable=0;fillColor=none;top=0;left=0;bottom=0;right=0;align=left;spacingLeft=6;overflow=hidden;" vertex="1" parent="xpiKYsI1_r9FF396CeuT-62">
          <mxGeometry x="30" width="150" height="30" as="geometry" />
        </mxCell>
        <mxCell id="xpiKYsI1_r9FF396CeuT-65" value="商品" style="shape=table;startSize=30;container=1;collapsible=1;childLayout=tableLayout;fixedRows=1;rowLines=0;fontStyle=1;align=center;resizeLast=1;" vertex="1" parent="1">
          <mxGeometry x="320" y="700" width="180" height="270" as="geometry" />
        </mxCell>
        <mxCell id="xpiKYsI1_r9FF396CeuT-66" value="" style="shape=partialRectangle;collapsible=0;dropTarget=0;pointerEvents=0;fillColor=none;top=0;left=0;bottom=1;right=0;points=[[0,0.5],[1,0.5]];portConstraint=eastwest;" vertex="1" parent="xpiKYsI1_r9FF396CeuT-65">
          <mxGeometry y="30" width="180" height="30" as="geometry" />
        </mxCell>
        <mxCell id="xpiKYsI1_r9FF396CeuT-67" value="PK" style="shape=partialRectangle;connectable=0;fillColor=none;top=0;left=0;bottom=0;right=0;fontStyle=1;overflow=hidden;" vertex="1" parent="xpiKYsI1_r9FF396CeuT-66">
          <mxGeometry width="30" height="30" as="geometry" />
        </mxCell>
        <mxCell id="xpiKYsI1_r9FF396CeuT-68" value="商品ID" style="shape=partialRectangle;connectable=0;fillColor=none;top=0;left=0;bottom=0;right=0;align=left;spacingLeft=6;fontStyle=5;overflow=hidden;" vertex="1" parent="xpiKYsI1_r9FF396CeuT-66">
          <mxGeometry x="30" width="150" height="30" as="geometry" />
        </mxCell>
        <mxCell id="xpiKYsI1_r9FF396CeuT-69" value="" style="shape=partialRectangle;collapsible=0;dropTarget=0;pointerEvents=0;fillColor=none;top=0;left=0;bottom=0;right=0;points=[[0,0.5],[1,0.5]];portConstraint=eastwest;" vertex="1" parent="xpiKYsI1_r9FF396CeuT-65">
          <mxGeometry y="60" width="180" height="30" as="geometry" />
        </mxCell>
        <mxCell id="xpiKYsI1_r9FF396CeuT-70" value="" style="shape=partialRectangle;connectable=0;fillColor=none;top=0;left=0;bottom=0;right=0;editable=1;overflow=hidden;" vertex="1" parent="xpiKYsI1_r9FF396CeuT-69">
          <mxGeometry width="30" height="30" as="geometry" />
        </mxCell>
        <mxCell id="xpiKYsI1_r9FF396CeuT-71" value="商品名" style="shape=partialRectangle;connectable=0;fillColor=none;top=0;left=0;bottom=0;right=0;align=left;spacingLeft=6;overflow=hidden;" vertex="1" parent="xpiKYsI1_r9FF396CeuT-69">
          <mxGeometry x="30" width="150" height="30" as="geometry" />
        </mxCell>
        <mxCell id="xpiKYsI1_r9FF396CeuT-72" value="" style="shape=partialRectangle;collapsible=0;dropTarget=0;pointerEvents=0;fillColor=none;top=0;left=0;bottom=0;right=0;points=[[0,0.5],[1,0.5]];portConstraint=eastwest;" vertex="1" parent="xpiKYsI1_r9FF396CeuT-65">
          <mxGeometry y="90" width="180" height="30" as="geometry" />
        </mxCell>
        <mxCell id="xpiKYsI1_r9FF396CeuT-73" value="" style="shape=partialRectangle;connectable=0;fillColor=none;top=0;left=0;bottom=0;right=0;editable=1;overflow=hidden;" vertex="1" parent="xpiKYsI1_r9FF396CeuT-72">
          <mxGeometry width="30" height="30" as="geometry" />
        </mxCell>
        <mxCell id="xpiKYsI1_r9FF396CeuT-74" value="説明文" style="shape=partialRectangle;connectable=0;fillColor=none;top=0;left=0;bottom=0;right=0;align=left;spacingLeft=6;overflow=hidden;" vertex="1" parent="xpiKYsI1_r9FF396CeuT-72">
          <mxGeometry x="30" width="150" height="30" as="geometry" />
        </mxCell>
        <mxCell id="xpiKYsI1_r9FF396CeuT-75" value="" style="shape=partialRectangle;collapsible=0;dropTarget=0;pointerEvents=0;fillColor=none;top=0;left=0;bottom=0;right=0;points=[[0,0.5],[1,0.5]];portConstraint=eastwest;" vertex="1" parent="xpiKYsI1_r9FF396CeuT-65">
          <mxGeometry y="120" width="180" height="30" as="geometry" />
        </mxCell>
        <mxCell id="xpiKYsI1_r9FF396CeuT-76" value="" style="shape=partialRectangle;connectable=0;fillColor=none;top=0;left=0;bottom=0;right=0;editable=1;overflow=hidden;" vertex="1" parent="xpiKYsI1_r9FF396CeuT-75">
          <mxGeometry width="30" height="30" as="geometry" />
        </mxCell>
        <mxCell id="xpiKYsI1_r9FF396CeuT-77" value="価格" style="shape=partialRectangle;connectable=0;fillColor=none;top=0;left=0;bottom=0;right=0;align=left;spacingLeft=6;overflow=hidden;" vertex="1" parent="xpiKYsI1_r9FF396CeuT-75">
          <mxGeometry x="30" width="150" height="30" as="geometry" />
        </mxCell>
        <mxCell id="xpiKYsI1_r9FF396CeuT-78" value="画像" style="shape=partialRectangle;connectable=0;fillColor=none;top=0;left=0;bottom=0;right=0;align=left;spacingLeft=6;overflow=hidden;" vertex="1" parent="1">
          <mxGeometry x="350" y="850" width="150" height="30" as="geometry" />
        </mxCell>
        <mxCell id="xpiKYsI1_r9FF396CeuT-80" value="販売ステータス" style="shape=partialRectangle;connectable=0;fillColor=none;top=0;left=0;bottom=0;right=0;align=left;spacingLeft=6;overflow=hidden;" vertex="1" parent="1">
          <mxGeometry x="350" y="880" width="150" height="30" as="geometry" />
        </mxCell>
        <mxCell id="xpiKYsI1_r9FF396CeuT-81" value="ジャンル" style="shape=table;startSize=30;container=1;collapsible=1;childLayout=tableLayout;fixedRows=1;rowLines=0;fontStyle=1;align=center;resizeLast=1;" vertex="1" parent="1">
          <mxGeometry x="600" y="700" width="180" height="180" as="geometry" />
        </mxCell>
        <mxCell id="xpiKYsI1_r9FF396CeuT-82" value="" style="shape=partialRectangle;collapsible=0;dropTarget=0;pointerEvents=0;fillColor=none;top=0;left=0;bottom=1;right=0;points=[[0,0.5],[1,0.5]];portConstraint=eastwest;" vertex="1" parent="xpiKYsI1_r9FF396CeuT-81">
          <mxGeometry y="30" width="180" height="30" as="geometry" />
        </mxCell>
        <mxCell id="xpiKYsI1_r9FF396CeuT-83" value="PK" style="shape=partialRectangle;connectable=0;fillColor=none;top=0;left=0;bottom=0;right=0;fontStyle=1;overflow=hidden;" vertex="1" parent="xpiKYsI1_r9FF396CeuT-82">
          <mxGeometry width="30" height="30" as="geometry" />
        </mxCell>
        <mxCell id="xpiKYsI1_r9FF396CeuT-84" value="ジャンルID" style="shape=partialRectangle;connectable=0;fillColor=none;top=0;left=0;bottom=0;right=0;align=left;spacingLeft=6;fontStyle=5;overflow=hidden;" vertex="1" parent="xpiKYsI1_r9FF396CeuT-82">
          <mxGeometry x="30" width="150" height="30" as="geometry" />
        </mxCell>
        <mxCell id="xpiKYsI1_r9FF396CeuT-85" value="" style="shape=partialRectangle;collapsible=0;dropTarget=0;pointerEvents=0;fillColor=none;top=0;left=0;bottom=0;right=0;points=[[0,0.5],[1,0.5]];portConstraint=eastwest;" vertex="1" parent="xpiKYsI1_r9FF396CeuT-81">
          <mxGeometry y="60" width="180" height="30" as="geometry" />
        </mxCell>
        <mxCell id="xpiKYsI1_r9FF396CeuT-86" value="" style="shape=partialRectangle;connectable=0;fillColor=none;top=0;left=0;bottom=0;right=0;editable=1;overflow=hidden;" vertex="1" parent="xpiKYsI1_r9FF396CeuT-85">
          <mxGeometry width="30" height="30" as="geometry" />
        </mxCell>
        <mxCell id="xpiKYsI1_r9FF396CeuT-87" value="商品ID" style="shape=partialRectangle;connectable=0;fillColor=none;top=0;left=0;bottom=0;right=0;align=left;spacingLeft=6;overflow=hidden;" vertex="1" parent="xpiKYsI1_r9FF396CeuT-85">
          <mxGeometry x="30" width="150" height="30" as="geometry" />
        </mxCell>
        <mxCell id="xpiKYsI1_r9FF396CeuT-88" value="" style="shape=partialRectangle;collapsible=0;dropTarget=0;pointerEvents=0;fillColor=none;top=0;left=0;bottom=0;right=0;points=[[0,0.5],[1,0.5]];portConstraint=eastwest;" vertex="1" parent="xpiKYsI1_r9FF396CeuT-81">
          <mxGeometry y="90" width="180" height="30" as="geometry" />
        </mxCell>
        <mxCell id="xpiKYsI1_r9FF396CeuT-89" value="" style="shape=partialRectangle;connectable=0;fillColor=none;top=0;left=0;bottom=0;right=0;editable=1;overflow=hidden;" vertex="1" parent="xpiKYsI1_r9FF396CeuT-88">
          <mxGeometry width="30" height="30" as="geometry" />
        </mxCell>
        <mxCell id="xpiKYsI1_r9FF396CeuT-90" value="ジャンル名" style="shape=partialRectangle;connectable=0;fillColor=none;top=0;left=0;bottom=0;right=0;align=left;spacingLeft=6;overflow=hidden;" vertex="1" parent="xpiKYsI1_r9FF396CeuT-88">
          <mxGeometry x="30" width="150" height="30" as="geometry" />
        </mxCell>
        <mxCell id="xpiKYsI1_r9FF396CeuT-94" value="" style="edgeStyle=entityRelationEdgeStyle;fontSize=12;html=1;endArrow=ERoneToMany;exitX=1.011;exitY=-0.067;exitDx=0;exitDy=0;exitPerimeter=0;" edge="1" parent="1" source="xpiKYsI1_r9FF396CeuT-62">
          <mxGeometry width="100" height="100" relative="1" as="geometry">
            <mxPoint x="230" y="820" as="sourcePoint" />
            <mxPoint x="320" y="760" as="targetPoint" />
          </mxGeometry>
        </mxCell>
        <mxCell id="xpiKYsI1_r9FF396CeuT-96" value="カート" style="shape=table;startSize=30;container=1;collapsible=1;childLayout=tableLayout;fixedRows=1;rowLines=0;fontStyle=1;align=center;resizeLast=1;" vertex="1" parent="1">
          <mxGeometry x="40" y="415" width="180" height="160" as="geometry" />
        </mxCell>
        <mxCell id="xpiKYsI1_r9FF396CeuT-97" value="" style="shape=partialRectangle;collapsible=0;dropTarget=0;pointerEvents=0;fillColor=none;top=0;left=0;bottom=1;right=0;points=[[0,0.5],[1,0.5]];portConstraint=eastwest;" vertex="1" parent="xpiKYsI1_r9FF396CeuT-96">
          <mxGeometry y="30" width="180" height="30" as="geometry" />
        </mxCell>
        <mxCell id="xpiKYsI1_r9FF396CeuT-98" value="PK" style="shape=partialRectangle;connectable=0;fillColor=none;top=0;left=0;bottom=0;right=0;fontStyle=1;overflow=hidden;" vertex="1" parent="xpiKYsI1_r9FF396CeuT-97">
          <mxGeometry width="30" height="30" as="geometry" />
        </mxCell>
        <mxCell id="xpiKYsI1_r9FF396CeuT-99" value="UniqueID" style="shape=partialRectangle;connectable=0;fillColor=none;top=0;left=0;bottom=0;right=0;align=left;spacingLeft=6;fontStyle=5;overflow=hidden;" vertex="1" parent="xpiKYsI1_r9FF396CeuT-97">
          <mxGeometry x="30" width="150" height="30" as="geometry" />
        </mxCell>
        <mxCell id="xpiKYsI1_r9FF396CeuT-100" value="" style="shape=partialRectangle;collapsible=0;dropTarget=0;pointerEvents=0;fillColor=none;top=0;left=0;bottom=0;right=0;points=[[0,0.5],[1,0.5]];portConstraint=eastwest;" vertex="1" parent="xpiKYsI1_r9FF396CeuT-96">
          <mxGeometry y="60" width="180" height="30" as="geometry" />
        </mxCell>
        <mxCell id="xpiKYsI1_r9FF396CeuT-101" value="" style="shape=partialRectangle;connectable=0;fillColor=none;top=0;left=0;bottom=0;right=0;editable=1;overflow=hidden;" vertex="1" parent="xpiKYsI1_r9FF396CeuT-100">
          <mxGeometry width="30" height="30" as="geometry" />
        </mxCell>
        <mxCell id="xpiKYsI1_r9FF396CeuT-102" value="Row 1" style="shape=partialRectangle;connectable=0;fillColor=none;top=0;left=0;bottom=0;right=0;align=left;spacingLeft=6;overflow=hidden;" vertex="1" parent="xpiKYsI1_r9FF396CeuT-100">
          <mxGeometry x="30" width="150" height="30" as="geometry" />
        </mxCell>
        <mxCell id="xpiKYsI1_r9FF396CeuT-103" value="" style="shape=partialRectangle;collapsible=0;dropTarget=0;pointerEvents=0;fillColor=none;top=0;left=0;bottom=0;right=0;points=[[0,0.5],[1,0.5]];portConstraint=eastwest;" vertex="1" parent="xpiKYsI1_r9FF396CeuT-96">
          <mxGeometry y="90" width="180" height="30" as="geometry" />
        </mxCell>
        <mxCell id="xpiKYsI1_r9FF396CeuT-104" value="" style="shape=partialRectangle;connectable=0;fillColor=none;top=0;left=0;bottom=0;right=0;editable=1;overflow=hidden;" vertex="1" parent="xpiKYsI1_r9FF396CeuT-103">
          <mxGeometry width="30" height="30" as="geometry" />
        </mxCell>
        <mxCell id="xpiKYsI1_r9FF396CeuT-105" value="Row 2" style="shape=partialRectangle;connectable=0;fillColor=none;top=0;left=0;bottom=0;right=0;align=left;spacingLeft=6;overflow=hidden;" vertex="1" parent="xpiKYsI1_r9FF396CeuT-103">
          <mxGeometry x="30" width="150" height="30" as="geometry" />
        </mxCell>
        <mxCell id="xpiKYsI1_r9FF396CeuT-106" value="" style="shape=partialRectangle;collapsible=0;dropTarget=0;pointerEvents=0;fillColor=none;top=0;left=0;bottom=0;right=0;points=[[0,0.5],[1,0.5]];portConstraint=eastwest;" vertex="1" parent="xpiKYsI1_r9FF396CeuT-96">
          <mxGeometry y="120" width="180" height="30" as="geometry" />
        </mxCell>
        <mxCell id="xpiKYsI1_r9FF396CeuT-107" value="" style="shape=partialRectangle;connectable=0;fillColor=none;top=0;left=0;bottom=0;right=0;editable=1;overflow=hidden;" vertex="1" parent="xpiKYsI1_r9FF396CeuT-106">
          <mxGeometry width="30" height="30" as="geometry" />
        </mxCell>
        <mxCell id="xpiKYsI1_r9FF396CeuT-108" value="Row 3" style="shape=partialRectangle;connectable=0;fillColor=none;top=0;left=0;bottom=0;right=0;align=left;spacingLeft=6;overflow=hidden;" vertex="1" parent="xpiKYsI1_r9FF396CeuT-106">
          <mxGeometry x="30" width="150" height="30" as="geometry" />
        </mxCell>
        <mxCell id="xpiKYsI1_r9FF396CeuT-109" value="会員ID" style="shape=partialRectangle;connectable=0;fillColor=none;top=0;left=0;bottom=0;right=0;align=left;spacingLeft=6;overflow=hidden;" vertex="1" parent="1">
          <mxGeometry x="350" y="100" width="150" height="30" as="geometry" />
        </mxCell>
        <mxCell id="xpiKYsI1_r9FF396CeuT-110" value="" style="endArrow=none;html=1;rounded=0;" edge="1" parent="1">
          <mxGeometry relative="1" as="geometry">
            <mxPoint x="500" y="779.5" as="sourcePoint" />
            <mxPoint x="600" y="779.5" as="targetPoint" />
          </mxGeometry>
        </mxCell>
        <mxCell id="xpiKYsI1_r9FF396CeuT-111" value="個数" style="shape=partialRectangle;connectable=0;fillColor=none;top=0;left=0;bottom=0;right=0;align=left;spacingLeft=6;overflow=hidden;" vertex="1" parent="1">
          <mxGeometry x="350" y="480" width="150" height="30" as="geometry" />
        </mxCell>
        <mxCell id="xpiKYsI1_r9FF396CeuT-112" value="価格" style="shape=partialRectangle;connectable=0;fillColor=none;top=0;left=0;bottom=0;right=0;align=left;spacingLeft=6;overflow=hidden;" vertex="1" parent="1">
          <mxGeometry x="350" y="510" width="150" height="30" as="geometry" />
        </mxCell>
        <mxCell id="xpiKYsI1_r9FF396CeuT-113" value="送料" style="shape=partialRectangle;connectable=0;fillColor=none;top=0;left=0;bottom=0;right=0;align=left;spacingLeft=6;overflow=hidden;" vertex="1" parent="1">
          <mxGeometry x="350" y="540" width="150" height="30" as="geometry" />
        </mxCell>
        <mxCell id="xpiKYsI1_r9FF396CeuT-114" value="更新日" style="shape=partialRectangle;connectable=0;fillColor=none;top=0;left=0;bottom=0;right=0;align=left;spacingLeft=6;overflow=hidden;" vertex="1" parent="1">
          <mxGeometry x="350" y="190" width="150" height="30" as="geometry" />
        </mxCell>
        <mxCell id="xpiKYsI1_r9FF396CeuT-115" value="登録日" style="shape=partialRectangle;connectable=0;fillColor=none;top=0;left=0;bottom=0;right=0;align=left;spacingLeft=6;overflow=hidden;" vertex="1" parent="1">
          <mxGeometry x="70" y="310" width="150" height="30" as="geometry" />
        </mxCell>
        <mxCell id="xpiKYsI1_r9FF396CeuT-116" value="更新日" style="shape=partialRectangle;connectable=0;fillColor=none;top=0;left=0;bottom=0;right=0;align=left;spacingLeft=6;overflow=hidden;" vertex="1" parent="1">
          <mxGeometry x="70" y="340" width="150" height="30" as="geometry" />
        </mxCell>
        <mxCell id="xpiKYsI1_r9FF396CeuT-121" value="登録日" style="shape=partialRectangle;connectable=0;fillColor=none;top=0;left=0;bottom=0;right=0;align=left;spacingLeft=6;overflow=hidden;" vertex="1" parent="1">
          <mxGeometry x="350" y="910" width="150" height="30" as="geometry" />
        </mxCell>
        <mxCell id="xpiKYsI1_r9FF396CeuT-122" value="更新日" style="shape=partialRectangle;connectable=0;fillColor=none;top=0;left=0;bottom=0;right=0;align=left;spacingLeft=6;overflow=hidden;" vertex="1" parent="1">
          <mxGeometry x="350" y="940" width="150" height="30" as="geometry" />
        </mxCell>
        <mxCell id="xpiKYsI1_r9FF396CeuT-123" value="登録日" style="shape=partialRectangle;connectable=0;fillColor=none;top=0;left=0;bottom=0;right=0;align=left;spacingLeft=6;overflow=hidden;" vertex="1" parent="1">
          <mxGeometry x="630" y="820" width="150" height="30" as="geometry" />
        </mxCell>
        <mxCell id="xpiKYsI1_r9FF396CeuT-124" value="更新日" style="shape=partialRectangle;connectable=0;fillColor=none;top=0;left=0;bottom=0;right=0;align=left;spacingLeft=6;overflow=hidden;" vertex="1" parent="1">
          <mxGeometry x="630" y="850" width="150" height="30" as="geometry" />
        </mxCell>
        <mxCell id="xpiKYsI1_r9FF396CeuT-125" value="更新日" style="shape=partialRectangle;connectable=0;fillColor=none;top=0;left=0;bottom=0;right=0;align=left;spacingLeft=6;overflow=hidden;" vertex="1" parent="1">
          <mxGeometry x="70" y="850" width="150" height="30" as="geometry" />
        </mxCell>
        <mxCell id="xpiKYsI1_r9FF396CeuT-126" value="注文商品" style="shape=table;startSize=30;container=1;collapsible=1;childLayout=tableLayout;fixedRows=1;rowLines=0;fontStyle=1;align=center;resizeLast=1;" vertex="1" parent="1">
          <mxGeometry x="600" y="360" width="180" height="230" as="geometry" />
        </mxCell>
        <mxCell id="xpiKYsI1_r9FF396CeuT-127" value="" style="shape=partialRectangle;collapsible=0;dropTarget=0;pointerEvents=0;fillColor=none;top=0;left=0;bottom=1;right=0;points=[[0,0.5],[1,0.5]];portConstraint=eastwest;" vertex="1" parent="xpiKYsI1_r9FF396CeuT-126">
          <mxGeometry y="30" width="180" height="30" as="geometry" />
        </mxCell>
        <mxCell id="xpiKYsI1_r9FF396CeuT-128" value="PK" style="shape=partialRectangle;connectable=0;fillColor=none;top=0;left=0;bottom=0;right=0;fontStyle=1;overflow=hidden;" vertex="1" parent="xpiKYsI1_r9FF396CeuT-127">
          <mxGeometry width="30" height="30" as="geometry" />
        </mxCell>
        <mxCell id="xpiKYsI1_r9FF396CeuT-129" value="注文商品D" style="shape=partialRectangle;connectable=0;fillColor=none;top=0;left=0;bottom=0;right=0;align=left;spacingLeft=6;fontStyle=5;overflow=hidden;" vertex="1" parent="xpiKYsI1_r9FF396CeuT-127">
          <mxGeometry x="30" width="150" height="30" as="geometry" />
        </mxCell>
        <mxCell id="xpiKYsI1_r9FF396CeuT-130" value="" style="shape=partialRectangle;collapsible=0;dropTarget=0;pointerEvents=0;fillColor=none;top=0;left=0;bottom=0;right=0;points=[[0,0.5],[1,0.5]];portConstraint=eastwest;" vertex="1" parent="xpiKYsI1_r9FF396CeuT-126">
          <mxGeometry y="60" width="180" height="30" as="geometry" />
        </mxCell>
        <mxCell id="xpiKYsI1_r9FF396CeuT-131" value="" style="shape=partialRectangle;connectable=0;fillColor=none;top=0;left=0;bottom=0;right=0;editable=1;overflow=hidden;" vertex="1" parent="xpiKYsI1_r9FF396CeuT-130">
          <mxGeometry width="30" height="30" as="geometry" />
        </mxCell>
        <mxCell id="xpiKYsI1_r9FF396CeuT-132" value="商品" style="shape=partialRectangle;connectable=0;fillColor=none;top=0;left=0;bottom=0;right=0;align=left;spacingLeft=6;overflow=hidden;" vertex="1" parent="xpiKYsI1_r9FF396CeuT-130">
          <mxGeometry x="30" width="150" height="30" as="geometry" />
        </mxCell>
        <mxCell id="xpiKYsI1_r9FF396CeuT-133" value="" style="shape=partialRectangle;collapsible=0;dropTarget=0;pointerEvents=0;fillColor=none;top=0;left=0;bottom=0;right=0;points=[[0,0.5],[1,0.5]];portConstraint=eastwest;" vertex="1" parent="xpiKYsI1_r9FF396CeuT-126">
          <mxGeometry y="90" width="180" height="30" as="geometry" />
        </mxCell>
        <mxCell id="xpiKYsI1_r9FF396CeuT-134" value="" style="shape=partialRectangle;connectable=0;fillColor=none;top=0;left=0;bottom=0;right=0;editable=1;overflow=hidden;" vertex="1" parent="xpiKYsI1_r9FF396CeuT-133">
          <mxGeometry width="30" height="30" as="geometry" />
        </mxCell>
        <mxCell id="xpiKYsI1_r9FF396CeuT-135" value="注文ID" style="shape=partialRectangle;connectable=0;fillColor=none;top=0;left=0;bottom=0;right=0;align=left;spacingLeft=6;overflow=hidden;" vertex="1" parent="xpiKYsI1_r9FF396CeuT-133">
          <mxGeometry x="30" width="150" height="30" as="geometry" />
        </mxCell>
        <mxCell id="xpiKYsI1_r9FF396CeuT-136" value="" style="shape=partialRectangle;collapsible=0;dropTarget=0;pointerEvents=0;fillColor=none;top=0;left=0;bottom=0;right=0;points=[[0,0.5],[1,0.5]];portConstraint=eastwest;" vertex="1" parent="xpiKYsI1_r9FF396CeuT-126">
          <mxGeometry y="120" width="180" height="30" as="geometry" />
        </mxCell>
        <mxCell id="xpiKYsI1_r9FF396CeuT-137" value="" style="shape=partialRectangle;connectable=0;fillColor=none;top=0;left=0;bottom=0;right=0;editable=1;overflow=hidden;" vertex="1" parent="xpiKYsI1_r9FF396CeuT-136">
          <mxGeometry width="30" height="30" as="geometry" />
        </mxCell>
        <mxCell id="xpiKYsI1_r9FF396CeuT-138" value="個数" style="shape=partialRectangle;connectable=0;fillColor=none;top=0;left=0;bottom=0;right=0;align=left;spacingLeft=6;overflow=hidden;" vertex="1" parent="xpiKYsI1_r9FF396CeuT-136">
          <mxGeometry x="30" width="150" height="30" as="geometry" />
        </mxCell>
        <mxCell id="xpiKYsI1_r9FF396CeuT-139" value="支払い方法" style="shape=partialRectangle;connectable=0;fillColor=none;top=0;left=0;bottom=0;right=0;align=left;spacingLeft=6;overflow=hidden;" vertex="1" parent="1">
          <mxGeometry x="350" y="570" width="150" height="30" as="geometry" />
        </mxCell>
      </root>
    </mxGraphModel>
  </diagram>
</mxfile>
